<svg width="87" height="37" viewBox="0 0 87 37" fill="none" xmlns="http://www.w3.org/2000/svg">
<path fill-rule="evenodd" clip-rule="evenodd" d="M83.874 19.5393C84.2979 18.7434 84.6534 18.0615 84.9518 17.4738C85.2502 16.886 85.4914 16.3928 85.6865 15.9749C85.8814 15.5573 86.0302 15.215 86.1437 14.9291C86.2574 14.643 86.3357 14.4135 86.3897 14.2216C86.4439 14.0294 86.4737 13.8747 86.4903 13.7384C86.5071 13.6017 86.5105 13.4837 86.5115 13.3652C86.4363 13.1563 86.3574 12.9508 86.2745 12.749C86.1916 12.5472 86.105 12.3485 86.0146 12.1535C85.9241 11.9586 85.8298 11.767 85.7317 11.5788C85.6337 11.3907 85.5316 11.2063 85.426 11.0249C85.3204 10.8436 85.2108 10.666 85.0975 10.4915C84.9842 10.3173 84.867 10.1464 84.746 9.97906C84.6252 9.81137 84.5005 9.64739 84.3719 9.48682C84.2434 9.32625 84.1109 9.1694 83.9748 9.01564C83.8386 8.8619 83.6986 8.71185 83.5549 8.56492C83.411 8.41829 83.2635 8.27476 83.1121 8.13495C82.9606 7.99514 82.8054 7.85875 82.6464 7.72576C82.4874 7.59277 82.3245 7.46318 82.1578 7.33731C81.9912 7.21114 81.8208 7.08838 81.6464 6.96933C81.4722 6.84998 81.2941 6.73435 81.1122 6.62212C80.9305 6.50959 80.7447 6.40076 80.5552 6.29536C80.3657 6.18995 80.1724 6.08794 79.9752 5.98965C79.2449 6.00937 78.5155 6.02363 77.7874 6.03187C77.0593 6.0401 76.3324 6.0426 75.6066 6.03935C74.8808 6.0361 74.1563 6.02682 73.433 6.01181C72.7095 5.99708 71.9873 5.97632 71.2664 5.9495C70.5453 5.92301 69.8256 5.89046 69.1069 5.85217C68.3881 5.81419 67.6708 5.76986 66.9545 5.7201C66.2382 5.67034 65.5231 5.61453 64.8092 5.55299C64.0953 5.49145 63.3826 5.42415 62.6709 5.35113C61.9595 5.27781 61.249 5.19903 60.5398 5.11423C59.8306 5.02942 59.1226 4.93888 58.4159 4.84229C57.709 4.74601 57.0034 4.64368 56.2989 4.53562C55.5945 4.42754 54.8912 4.31374 54.1889 4.19416C53.4869 4.0743 52.7862 3.94879 52.0863 3.81756C51.3865 3.6862 50.6881 3.5491 49.9906 3.4061C49.2932 3.2631 48.5971 3.11434 47.902 2.95969C47.2072 2.80519 46.5134 2.64478 45.8206 2.47845C45.9035 2.77521 45.9928 3.06655 46.0884 3.3525C46.184 3.63844 46.2858 3.91899 46.3937 4.19398C46.5016 4.46897 46.6159 4.73857 46.7364 5.00278C46.8569 5.26695 46.9838 5.52577 47.1166 5.77902C47.2495 6.03224 47.3889 6.28024 47.5341 6.52253C47.6796 6.76497 47.8314 7.00201 47.9892 7.23352C48.1473 7.46518 48.3114 7.69126 48.4818 7.91196C48.6523 8.13263 48.8287 8.34776 49.0118 8.55767C49.1945 8.76741 49.3836 8.97173 49.579 9.17069C49.7744 9.36962 49.9761 9.56318 50.1838 9.75115C50.3918 9.9393 50.6058 10.1219 50.8262 10.2991C51.0465 10.4762 51.2731 10.648 51.5059 10.8143C51.7387 10.9806 51.9777 11.1415 52.223 11.2969C52.4683 11.4523 52.7198 11.6023 52.9776 11.7469C53.2353 11.8914 53.4994 12.0305 53.7696 12.1642C54.0398 12.2979 54.3163 12.4261 54.5991 12.5489L55.7094 12.8651L56.8219 13.1682L57.9367 13.4583L59.0538 13.7353L60.1732 13.9992L61.2948 14.25L62.4187 14.4878L63.5448 14.7125L63.562 14.7475L63.5793 14.7825L63.5966 14.8175L63.6139 14.8525L63.7348 15.0974L63.7522 15.1324L63.8213 15.2723C63.5464 15.4122 63.2705 15.5487 62.9936 15.6819C62.7166 15.815 62.4387 15.9448 62.1597 16.0712C61.8807 16.1976 61.6007 16.3207 61.3197 16.4404C61.0387 16.5601 60.7566 16.6765 60.4736 16.7895C60.1905 16.9025 59.9064 17.0121 59.6212 17.1184C59.3361 17.2246 59.05 17.3276 58.7628 17.4271C58.4756 17.5267 58.1875 17.6229 57.8982 17.7157C57.609 17.8085 57.3188 17.898 57.0275 17.9841C56.7362 18.0703 56.4439 18.153 56.1506 18.2324C55.8573 18.3118 55.563 18.3879 55.2676 18.4605C54.9722 18.5332 54.6758 18.6026 54.3784 18.6685C54.081 18.7345 53.7826 18.7971 53.4831 18.8564C53.1836 18.9156 52.8832 18.9715 52.5817 19.024C52.2802 19.0766 51.9776 19.1257 51.6741 19.1716C51.3705 19.2174 51.0659 19.2599 50.7603 19.299C50.4547 19.3381 50.148 19.3738 49.8404 19.4062C48.6302 19.5802 47.4337 19.7189 46.251 19.8221C45.0685 19.9255 43.8995 19.9933 42.7445 20.0258C41.5892 20.0582 40.4481 20.0554 39.3205 20.017C38.1931 19.9788 37.0794 19.9052 35.9794 19.7961C34.8793 19.687 33.7933 19.5427 32.7209 19.3629C31.6485 19.183 30.5898 18.9678 29.545 18.7172C28.5003 18.4667 27.4692 18.1807 26.4521 17.8594C25.4347 17.538 24.4312 17.1812 23.4418 16.7892C22.452 16.397 21.4762 15.9696 20.5141 15.5067C19.552 15.0438 18.6035 14.5454 17.669 14.0118C16.7345 13.4782 15.8137 12.9091 14.9069 12.3047C14.0001 11.7003 13.1069 11.0605 12.2274 10.3852C11.3479 9.70999 10.4824 8.99943 9.63054 8.25342C8.77869 7.50741 7.94081 6.72613 7.1166 5.90941C6.29239 5.09268 5.48185 4.24051 4.68529 3.35303C3.88873 2.46555 3.10583 1.54266 2.33661 0.58429C2.2833 0.592133 2.23149 0.601556 2.18116 0.612558C2.13083 0.62356 2.0817 0.635938 2.03405 0.649923C1.98641 0.663878 1.94024 0.679441 1.89528 0.696382C1.85032 0.71332 1.80684 0.73184 1.76486 0.751936C1.72259 0.77183 1.68178 0.793328 1.64249 0.816377C1.60318 0.839461 1.56537 0.864088 1.52875 0.890124C1.49213 0.916156 1.457 0.94377 1.42307 0.972755C1.38943 1.00195 1.35699 1.03251 1.32603 1.06466C1.29477 1.09666 1.2653 1.13038 1.23702 1.16551C1.20876 1.20061 1.18168 1.23714 1.15638 1.27543C1.13079 1.31351 1.10669 1.35317 1.08406 1.39444C1.06115 1.4355 1.04004 1.47832 1.02012 1.52252C1.00018 1.56674 0.981437 1.61237 0.964191 1.65954C0.947249 1.70689 0.931477 1.75568 0.916912 1.80584C0.902661 1.85614 0.889581 1.90788 0.877987 1.9612C0.866095 2.01434 0.856004 2.0692 0.847107 2.12547C0.90388 2.44331 0.966813 2.7581 1.03532 3.06948C1.10382 3.38085 1.17818 3.68901 1.25871 3.9941C1.33893 4.29904 1.42501 4.60073 1.51695 4.89921C1.60889 5.19768 1.7067 5.49292 1.81037 5.78493C1.91373 6.07677 2.02328 6.36554 2.13865 6.65113C2.25405 6.93668 2.375 7.21885 2.50212 7.49794C2.62925 7.77703 2.76193 8.05273 2.90075 8.32539C3.0393 8.59784 3.18399 8.86728 3.33427 9.13328C3.48482 9.39947 3.64095 9.66224 3.80294 9.9218C3.96523 10.1815 4.13309 10.4378 4.30681 10.6909C4.48052 10.944 4.66008 11.1939 4.84552 11.4406C5.03096 11.6872 5.22228 11.9306 5.41943 12.1708C5.6166 12.411 5.81964 12.6479 6.02852 12.8816C6.23742 13.1153 6.45217 13.3458 6.67249 13.5729C6.89311 13.8001 7.11959 14.0242 7.35164 14.2448C7.58398 14.4656 7.82189 14.683 8.06596 14.8973C8.6016 15.3912 9.14278 15.8741 9.68977 16.3462C10.2365 16.8182 10.7887 17.2792 11.3464 17.7293C11.9042 18.1794 12.4677 18.6187 13.0365 19.0468C13.6053 19.475 14.1796 19.8922 14.7595 20.2984C15.3393 20.7047 15.9247 21.1 16.5156 21.4843C17.1065 21.8686 17.7029 22.242 18.3048 22.6044C18.9068 22.9669 19.5143 23.3183 20.1273 23.6589C20.7402 23.9994 21.3585 24.3288 21.9825 24.6474C22.6066 24.966 23.2361 25.2736 23.8712 25.5703C24.506 25.8669 25.1466 26.1526 25.7928 26.4274C26.4389 26.7022 27.0903 26.9658 27.7475 27.2187C28.4047 27.4716 29.0671 27.7133 29.7354 27.9443C30.4036 28.1753 31.0771 28.3951 31.7564 28.6042C32.4354 28.813 33.1202 29.0111 33.8103 29.1981C34.5006 29.3852 35.1962 29.5613 35.8976 29.7265C36.5987 29.8916 37.3056 30.0458 38.0178 30.189C38.319 30.2233 38.62 30.2547 38.9209 30.2833C39.2218 30.3119 39.5224 30.3376 39.8227 30.3605C40.1232 30.3833 40.4234 30.4034 40.7234 30.4205C41.0234 30.4377 41.3233 30.4521 41.6229 30.4635C41.9226 30.475 42.222 30.4836 42.5212 30.4894C42.8205 30.4952 43.1195 30.4981 43.4184 30.4982C43.7172 30.4982 44.0159 30.4955 44.3143 30.4898C44.6128 30.4842 44.911 30.4757 45.2091 30.4644C45.5072 30.453 45.805 30.4389 46.1027 30.4218C46.4003 30.4048 46.6978 30.3849 46.9951 30.3622C47.2923 30.3394 47.5894 30.3138 47.8863 30.2854C48.1832 30.2569 48.4799 30.2257 48.7764 30.1915C49.0729 30.1574 49.3692 30.1204 49.6653 30.0805C49.9614 30.0407 50.2573 29.998 50.553 29.9524C50.8487 29.9069 51.1442 29.8585 51.4395 29.8072C51.7348 29.7559 52.03 29.7019 52.3249 29.6449L56.4784 28.4192L60.6162 27.1658L64.7383 25.8846L68.8447 24.5757L68.6537 25.1109L68.453 25.6417L68.2423 26.1683L68.0219 26.6907L67.7916 27.2087L67.5515 27.7225L67.3015 28.2321L67.0417 28.7373C67.0247 28.8317 67.0102 28.9254 66.9981 29.0185C66.986 29.1116 66.9764 29.204 66.9692 29.2957C66.962 29.3875 66.9573 29.4786 66.9551 29.569C66.9528 29.6594 66.9531 29.7492 66.9558 29.8383C66.9585 29.9274 66.9637 30.0158 66.9713 30.1036C66.9789 30.1914 66.989 30.2785 67.0015 30.3649C67.0141 30.4514 67.0291 30.5372 67.0466 30.6223C67.0641 30.7074 67.084 30.7919 67.1064 30.8757C67.1289 30.9595 67.1537 31.0426 67.1811 31.1251C67.2084 31.2076 67.2382 31.2894 67.2705 31.3706C67.3028 31.4517 67.3375 31.5322 67.3747 31.612C67.4119 31.6919 67.4516 31.771 67.4937 31.8496C67.5358 31.9281 67.5804 32.0059 67.6275 32.0831C67.6745 32.1603 67.7241 32.2368 67.776 32.3127C67.8281 32.3885 67.8825 32.4637 67.9394 32.5383C67.9963 32.6128 68.0557 32.6867 68.1176 32.7599C68.1739 32.8411 68.2309 32.9216 68.2887 33.0013C68.3465 33.081 68.4051 33.1599 68.4644 33.238C68.5238 33.3161 68.5839 33.3935 68.6448 33.47C68.7057 33.5466 68.7673 33.6224 68.8297 33.6974C68.8921 33.7724 68.9554 33.8467 69.0193 33.9201C69.0833 33.9936 69.148 34.0662 69.2135 34.1382C69.279 34.2101 69.3452 34.2812 69.4123 34.3515C69.4793 34.4219 69.5471 34.4914 69.6157 34.5602C69.6843 34.629 69.7536 34.697 69.8237 34.7642C69.8938 34.8315 69.9647 34.8979 70.0363 34.9635C70.108 35.0292 70.1804 35.0941 70.2536 35.1582C70.3268 35.2223 70.4007 35.2856 70.4755 35.3481C70.5502 35.4107 70.6257 35.4724 70.7019 35.5334C70.7782 35.5944 70.8552 35.6546 70.933 35.714C71.0108 35.7734 71.0894 35.8321 71.1687 35.8899C71.2481 35.9477 71.3281 36.0048 71.409 36.0611L72.9758 33.7773L74.5704 31.5201L76.193 29.2895L77.8436 27.0857L79.522 24.9085L81.2284 22.7579L82.9628 20.634L83.8439 19.5855C83.8439 19.5855 83.4502 20.3349 83.874 19.5393Z" fill="#FBBF24"/>
</svg>
