<svg width="128" height="117" viewBox="0 0 128 117" fill="none" xmlns="http://www.w3.org/2000/svg">
<path d="M2.68798 5.68641C1.26089 5.68641 0.0895996 4.52858 0.0895996 3.08802C0.0895996 1.66092 1.24742 0.489624 2.68798 0.489624C4.12854 0.489624 5.28637 1.64746 5.28637 3.08802C5.28637 4.51512 4.11508 5.68641 2.68798 5.68641Z" fill="#9CA3AF"/>
<path d="M27.1102 5.68644C25.6831 5.68644 24.5118 4.52861 24.5118 3.08805C24.5118 1.66095 25.6696 0.489655 27.1102 0.489655C28.5373 0.489655 29.7086 1.64749 29.7086 3.08805C29.6951 4.51515 28.5373 5.68644 27.1102 5.68644Z" fill="#9CA3AF"/>
<path d="M51.5189 5.68644C50.0918 5.68644 48.9205 4.52861 48.9205 3.08805C48.9205 1.66095 50.0784 0.489655 51.5189 0.489655C52.946 0.489655 54.1173 1.64749 54.1173 3.08805C54.1173 4.51515 52.9595 5.68644 51.5189 5.68644Z" fill="#9CA3AF"/>
<path d="M75.9412 5.68644C74.5141 5.68644 73.3427 4.52861 73.3427 3.08805C73.3427 1.66095 74.5006 0.489655 75.9412 0.489655C77.3683 0.489655 78.5396 1.64749 78.5396 3.08805C78.5396 4.51515 77.3683 5.68644 75.9412 5.68644Z" fill="#9CA3AF"/>
<path d="M100.35 5.68644C98.9228 5.68644 97.7514 4.52861 97.7514 3.08805C97.7514 1.66095 98.9093 0.489655 100.35 0.489655C101.777 0.489655 102.948 1.64749 102.948 3.08805C102.948 4.51515 101.79 5.68644 100.35 5.68644Z" fill="#9CA3AF"/>
<path d="M124.772 5.68644C123.345 5.68644 122.174 4.52861 122.174 3.08805C122.174 1.66095 123.331 0.489655 124.772 0.489655C126.213 0.489655 127.37 1.64749 127.37 3.08805C127.37 4.51515 126.199 5.68644 124.772 5.68644Z" fill="#9CA3AF"/>
<path d="M2.68798 27.9545C1.26089 27.9545 0.0895996 26.7966 0.0895996 25.3561C0.0895996 23.929 1.24742 22.7577 2.68798 22.7577C4.12854 22.7577 5.28637 23.9155 5.28637 25.3561C5.28637 26.7832 4.11508 27.9545 2.68798 27.9545Z" fill="#9CA3AF"/>
<path d="M27.1102 27.9545C25.6831 27.9545 24.5118 26.7966 24.5118 25.3561C24.5118 23.929 25.6696 22.7577 27.1102 22.7577C28.5373 22.7577 29.7086 23.9155 29.7086 25.3561C29.6951 26.7832 28.5373 27.9545 27.1102 27.9545Z" fill="#9CA3AF"/>
<path d="M51.5189 27.9545C50.0918 27.9545 48.9205 26.7966 48.9205 25.3561C48.9205 23.929 50.0784 22.7577 51.5189 22.7577C52.946 22.7577 54.1173 23.9155 54.1173 25.3561C54.1173 26.7832 52.9595 27.9545 51.5189 27.9545Z" fill="#9CA3AF"/>
<path d="M75.9412 27.9545C74.5141 27.9545 73.3427 26.7966 73.3427 25.3561C73.3427 23.929 74.5006 22.7577 75.9412 22.7577C77.3683 22.7577 78.5396 23.9155 78.5396 25.3561C78.5396 26.7832 77.3683 27.9545 75.9412 27.9545Z" fill="#9CA3AF"/>
<path d="M100.35 27.9545C98.9228 27.9545 97.7514 26.7966 97.7514 25.3561C97.7514 23.929 98.9093 22.7577 100.35 22.7577C101.777 22.7577 102.948 23.9155 102.948 25.3561C102.948 26.7832 101.79 27.9545 100.35 27.9545Z" fill="#9CA3AF"/>
<path d="M124.772 27.9545C123.345 27.9545 122.174 26.7966 122.174 25.3561C122.174 23.929 123.331 22.7577 124.772 22.7577C126.213 22.7577 127.37 23.9155 127.37 25.3561C127.37 26.7832 126.199 27.9545 124.772 27.9545Z" fill="#9CA3AF"/>
<path d="M2.68798 50.2092C1.26089 50.2092 0.0895996 49.0513 0.0895996 47.6108C0.0895996 46.1837 1.24742 45.0124 2.68798 45.0124C4.12854 45.0124 5.28637 46.1702 5.28637 47.6108C5.28637 49.0513 4.11508 50.2092 2.68798 50.2092Z" fill="#9CA3AF"/>
<path d="M27.1102 50.2092C25.6831 50.2092 24.5118 49.0513 24.5118 47.6108C24.5118 46.1837 25.6696 45.0124 27.1102 45.0124C28.5373 45.0124 29.7086 46.1702 29.7086 47.6108C29.6951 49.0513 28.5373 50.2092 27.1102 50.2092Z" fill="#9CA3AF"/>
<path d="M51.5189 50.2092C50.0918 50.2092 48.9205 49.0513 48.9205 47.6108C48.9205 46.1837 50.0784 45.0124 51.5189 45.0124C52.946 45.0124 54.1173 46.1702 54.1173 47.6108C54.1173 49.0513 52.9595 50.2092 51.5189 50.2092Z" fill="#9CA3AF"/>
<path d="M75.9412 50.2092C74.5141 50.2092 73.3427 49.0513 73.3427 47.6108C73.3427 46.1837 74.5006 45.0124 75.9412 45.0124C77.3683 45.0124 78.5396 46.1702 78.5396 47.6108C78.5396 49.0513 77.3683 50.2092 75.9412 50.2092Z" fill="#9CA3AF"/>
<path d="M100.35 50.2092C98.9228 50.2092 97.7514 49.0513 97.7514 47.6108C97.7514 46.1837 98.9093 45.0124 100.35 45.0124C101.777 45.0124 102.948 46.1702 102.948 47.6108C102.948 49.0513 101.79 50.2092 100.35 50.2092Z" fill="#9CA3AF"/>
<path d="M124.772 50.2092C123.345 50.2092 122.174 49.0513 122.174 47.6108C122.174 46.1837 123.331 45.0124 124.772 45.0124C126.213 45.0124 127.37 46.1702 127.37 47.6108C127.37 49.0513 126.199 50.2092 124.772 50.2092Z" fill="#9CA3AF"/>
<path d="M2.68798 72.4772C1.26089 72.4772 0.0895996 71.3194 0.0895996 69.8788C0.0895996 68.4517 1.24742 67.2804 2.68798 67.2804C4.12854 67.2804 5.28637 68.4383 5.28637 69.8788C5.28637 71.3059 4.11508 72.4772 2.68798 72.4772Z" fill="#9CA3AF"/>
<path d="M27.1102 72.4772C25.6831 72.4772 24.5118 71.3194 24.5118 69.8788C24.5118 68.4517 25.6696 67.2804 27.1102 67.2804C28.5373 67.2804 29.7086 68.4383 29.7086 69.8788C29.6951 71.3059 28.5373 72.4772 27.1102 72.4772Z" fill="#9CA3AF"/>
<path d="M51.5189 72.4772C50.0918 72.4772 48.9205 71.3194 48.9205 69.8788C48.9205 68.4517 50.0784 67.2804 51.5189 67.2804C52.946 67.2804 54.1173 68.4383 54.1173 69.8788C54.1173 71.3059 52.9595 72.4772 51.5189 72.4772Z" fill="#9CA3AF"/>
<path d="M75.9412 72.4772C74.5141 72.4772 73.3427 71.3194 73.3427 69.8788C73.3427 68.4517 74.5006 67.2804 75.9412 67.2804C77.3683 67.2804 78.5396 68.4383 78.5396 69.8788C78.5396 71.3059 77.3683 72.4772 75.9412 72.4772Z" fill="#9CA3AF"/>
<path d="M100.35 72.4772C98.9228 72.4772 97.7514 71.3194 97.7514 69.8788C97.7514 68.4517 98.9093 67.2804 100.35 67.2804C101.777 67.2804 102.948 68.4383 102.948 69.8788C102.948 71.3059 101.79 72.4772 100.35 72.4772Z" fill="#9CA3AF"/>
<path d="M124.772 72.4772C123.345 72.4772 122.174 71.3194 122.174 69.8788C122.174 68.4517 123.331 67.2804 124.772 67.2804C126.213 67.2804 127.37 68.4383 127.37 69.8788C127.37 71.3059 126.199 72.4772 124.772 72.4772Z" fill="#9CA3AF"/>
<path d="M2.68798 94.7454C1.26089 94.7454 0.0895996 93.5875 0.0895996 92.147C0.0895996 90.7199 1.24742 89.5486 2.68798 89.5486C4.12854 89.5486 5.28637 90.7064 5.28637 92.147C5.28637 93.5741 4.11508 94.7454 2.68798 94.7454Z" fill="#9CA3AF"/>
<path d="M27.1102 94.7454C25.6831 94.7454 24.5118 93.5875 24.5118 92.147C24.5118 90.7199 25.6696 89.5486 27.1102 89.5486C28.5373 89.5486 29.7086 90.7064 29.7086 92.147C29.6951 93.5741 28.5373 94.7454 27.1102 94.7454Z" fill="#9CA3AF"/>
<path d="M51.5189 94.7454C50.0918 94.7454 48.9205 93.5875 48.9205 92.147C48.9205 90.7199 50.0784 89.5486 51.5189 89.5486C52.946 89.5486 54.1173 90.7064 54.1173 92.147C54.1173 93.5741 52.9595 94.7454 51.5189 94.7454Z" fill="#9CA3AF"/>
<path d="M75.9412 94.7454C74.5141 94.7454 73.3427 93.5875 73.3427 92.147C73.3427 90.7199 74.5006 89.5486 75.9412 89.5486C77.3683 89.5486 78.5396 90.7064 78.5396 92.147C78.5396 93.5741 77.3683 94.7454 75.9412 94.7454Z" fill="#9CA3AF"/>
<path d="M100.35 94.7454C98.9228 94.7454 97.7514 93.5875 97.7514 92.147C97.7514 90.7199 98.9093 89.5486 100.35 89.5486C101.777 89.5486 102.948 90.7064 102.948 92.147C102.948 93.5741 101.79 94.7454 100.35 94.7454Z" fill="#9CA3AF"/>
<path d="M124.772 94.7454C123.345 94.7454 122.174 93.5875 122.174 92.147C122.174 90.7199 123.331 89.5486 124.772 89.5486C126.213 89.5486 127.37 90.7064 127.37 92.147C127.37 93.5741 126.199 94.7454 124.772 94.7454Z" fill="#9CA3AF"/>
<path d="M2.68798 117C1.26089 117 0.0895996 115.842 0.0895996 114.402C0.0895996 112.974 1.24742 111.803 2.68798 111.803C4.12854 111.803 5.28637 112.961 5.28637 114.402C5.28637 115.842 4.11508 117 2.68798 117Z" fill="#9CA3AF"/>
<path d="M27.1102 117C25.6831 117 24.5118 115.842 24.5118 114.402C24.5118 112.974 25.6696 111.803 27.1102 111.803C28.5373 111.803 29.7086 112.961 29.7086 114.402C29.6951 115.842 28.5373 117 27.1102 117Z" fill="#9CA3AF"/>
<path d="M51.5189 117C50.0918 117 48.9205 115.842 48.9205 114.402C48.9205 112.974 50.0784 111.803 51.5189 111.803C52.946 111.803 54.1173 112.961 54.1173 114.402C54.1173 115.842 52.9595 117 51.5189 117Z" fill="#9CA3AF"/>
<path d="M75.9412 117C74.5141 117 73.3427 115.842 73.3427 114.402C73.3427 112.974 74.5006 111.803 75.9412 111.803C77.3683 111.803 78.5396 112.961 78.5396 114.402C78.5396 115.842 77.3683 117 75.9412 117Z" fill="#9CA3AF"/>
<path d="M100.35 117C98.9228 117 97.7514 115.842 97.7514 114.402C97.7514 112.974 98.9093 111.803 100.35 111.803C101.777 111.803 102.948 112.961 102.948 114.402C102.948 115.842 101.79 117 100.35 117Z" fill="#9CA3AF"/>
<path d="M124.772 117C123.345 117 122.174 115.842 122.174 114.402C122.174 112.974 123.331 111.803 124.772 111.803C126.213 111.803 127.37 112.961 127.37 114.402C127.37 115.842 126.199 117 124.772 117Z" fill="#9CA3AF"/>
</svg>
